<svg xmlns="http://www.w3.org/2000/svg" viewBox="0 0 1600 1100" width="1600" height="1100">
<defs>
<linearGradient id="lucht" x1="0" y1="0" x2="0" y2="1">
<stop offset="0%" stop-color="#16324A"/><stop offset="100%" stop-color="#0A1622"/>
</linearGradient>
<radialGradient id="gloed" cx="50%" cy="88%" r="60%">
<stop offset="0%" stop-color="#6FA8DC" stop-opacity="0.17"/>
<stop offset="100%" stop-color="#6FA8DC" stop-opacity="0"/>
</radialGradient>
</defs>
<rect width="1600" height="1100" fill="url(#lucht)"/>
<rect width="1600" height="1100" fill="url(#gloed)"/>
<rect x="-40" y="370" width="256" height="730" fill="#000" opacity="0.30"/><rect x="-18" y="396" width="16" height="22" rx="2" fill="#6FA8DC" opacity="0.23"/><rect x="-18" y="522" width="16" height="22" rx="2" fill="#6FA8DC" opacity="0.46"/><rect x="-18" y="564" width="16" height="22" rx="2" fill="#6FA8DC" opacity="0.28"/><rect x="-18" y="606" width="16" height="22" rx="2" fill="#6FA8DC" opacity="0.28"/><rect x="-18" y="690" width="16" height="22" rx="2" fill="#6FA8DC" opacity="0.29"/><rect x="-18" y="732" width="16" height="22" rx="2" fill="#6FA8DC" opacity="0.23"/><rect x="-18" y="858" width="16" height="22" rx="2" fill="#6FA8DC" opacity="0.45"/><rect x="12" y="648" width="16" height="22" rx="2" fill="#6FA8DC" opacity="0.45"/><rect x="12" y="816" width="16" height="22" rx="2" fill="#6FA8DC" opacity="0.33"/><rect x="12" y="858" width="16" height="22" rx="2" fill="#6FA8DC" opacity="0.17"/><rect x="12" y="900" width="16" height="22" rx="2" fill="#6FA8DC" opacity="0.13"/><rect x="42" y="438" width="16" height="22" rx="2" fill="#6FA8DC" opacity="0.22"/><rect x="42" y="564" width="16" height="22" rx="2" fill="#6FA8DC" opacity="0.25"/><rect x="42" y="606" width="16" height="22" rx="2" fill="#6FA8DC" opacity="0.16"/><rect x="42" y="648" width="16" height="22" rx="2" fill="#6FA8DC" opacity="0.22"/><rect x="42" y="690" width="16" height="22" rx="2" fill="#6FA8DC" opacity="0.4"/><rect x="42" y="900" width="16" height="22" rx="2" fill="#6FA8DC" opacity="0.36"/><rect x="42" y="942" width="16" height="22" rx="2" fill="#6FA8DC" opacity="0.17"/><rect x="72" y="396" width="16" height="22" rx="2" fill="#6FA8DC" opacity="0.2"/><rect x="72" y="606" width="16" height="22" rx="2" fill="#6FA8DC" opacity="0.17"/><rect x="72" y="648" width="16" height="22" rx="2" fill="#6FA8DC" opacity="0.35"/><rect x="72" y="690" width="16" height="22" rx="2" fill="#6FA8DC" opacity="0.44"/><rect x="72" y="816" width="16" height="22" rx="2" fill="#6FA8DC" opacity="0.19"/><rect x="72" y="858" width="16" height="22" rx="2" fill="#6FA8DC" opacity="0.34"/><rect x="72" y="900" width="16" height="22" rx="2" fill="#6FA8DC" opacity="0.34"/><rect x="72" y="1026" width="16" height="22" rx="2" fill="#6FA8DC" opacity="0.36"/><rect x="102" y="480" width="16" height="22" rx="2" fill="#6FA8DC" opacity="0.43"/><rect x="102" y="522" width="16" height="22" rx="2" fill="#6FA8DC" opacity="0.16"/><rect x="102" y="606" width="16" height="22" rx="2" fill="#6FA8DC" opacity="0.46"/><rect x="102" y="900" width="16" height="22" rx="2" fill="#6FA8DC" opacity="0.49"/><rect x="102" y="984" width="16" height="22" rx="2" fill="#6FA8DC" opacity="0.32"/><rect x="132" y="396" width="16" height="22" rx="2" fill="#6FA8DC" opacity="0.39"/><rect x="132" y="438" width="16" height="22" rx="2" fill="#6FA8DC" opacity="0.45"/><rect x="132" y="522" width="16" height="22" rx="2" fill="#6FA8DC" opacity="0.33"/><rect x="132" y="564" width="16" height="22" rx="2" fill="#6FA8DC" opacity="0.12"/><rect x="132" y="648" width="16" height="22" rx="2" fill="#6FA8DC" opacity="0.42"/><rect x="132" y="690" width="16" height="22" rx="2" fill="#6FA8DC" opacity="0.27"/><rect x="132" y="732" width="16" height="22" rx="2" fill="#6FA8DC" opacity="0.36"/><rect x="132" y="816" width="16" height="22" rx="2" fill="#6FA8DC" opacity="0.17"/><rect x="132" y="858" width="16" height="22" rx="2" fill="#6FA8DC" opacity="0.43"/><rect x="132" y="942" width="16" height="22" rx="2" fill="#6FA8DC" opacity="0.21"/><rect x="132" y="984" width="16" height="22" rx="2" fill="#6FA8DC" opacity="0.15"/><rect x="162" y="438" width="16" height="22" rx="2" fill="#6FA8DC" opacity="0.34"/><rect x="162" y="480" width="16" height="22" rx="2" fill="#6FA8DC" opacity="0.4"/><rect x="162" y="522" width="16" height="22" rx="2" fill="#6FA8DC" opacity="0.23"/><rect x="162" y="606" width="16" height="22" rx="2" fill="#6FA8DC" opacity="0.28"/><rect x="162" y="690" width="16" height="22" rx="2" fill="#6FA8DC" opacity="0.26"/><rect x="162" y="942" width="16" height="22" rx="2" fill="#6FA8DC" opacity="0.32"/><rect x="162" y="1026" width="16" height="22" rx="2" fill="#6FA8DC" opacity="0.16"/><rect x="234" y="377" width="154" height="723" fill="#000" opacity="0.30"/><rect x="256" y="445" width="16" height="22" rx="2" fill="#6FA8DC" opacity="0.14"/><rect x="256" y="487" width="16" height="22" rx="2" fill="#6FA8DC" opacity="0.44"/><rect x="256" y="529" width="16" height="22" rx="2" fill="#6FA8DC" opacity="0.45"/><rect x="256" y="613" width="16" height="22" rx="2" fill="#6FA8DC" opacity="0.4"/><rect x="256" y="655" width="16" height="22" rx="2" fill="#6FA8DC" opacity="0.15"/><rect x="256" y="697" width="16" height="22" rx="2" fill="#6FA8DC" opacity="0.24"/><rect x="256" y="907" width="16" height="22" rx="2" fill="#6FA8DC" opacity="0.28"/><rect x="286" y="571" width="16" height="22" rx="2" fill="#6FA8DC" opacity="0.15"/><rect x="286" y="697" width="16" height="22" rx="2" fill="#6FA8DC" opacity="0.39"/><rect x="286" y="739" width="16" height="22" rx="2" fill="#6FA8DC" opacity="0.24"/><rect x="286" y="823" width="16" height="22" rx="2" fill="#6FA8DC" opacity="0.36"/><rect x="286" y="1033" width="16" height="22" rx="2" fill="#6FA8DC" opacity="0.23"/><rect x="316" y="571" width="16" height="22" rx="2" fill="#6FA8DC" opacity="0.35"/><rect x="316" y="655" width="16" height="22" rx="2" fill="#6FA8DC" opacity="0.15"/><rect x="316" y="697" width="16" height="22" rx="2" fill="#6FA8DC" opacity="0.33"/><rect x="316" y="739" width="16" height="22" rx="2" fill="#6FA8DC" opacity="0.35"/><rect x="316" y="781" width="16" height="22" rx="2" fill="#6FA8DC" opacity="0.26"/><rect x="316" y="949" width="16" height="22" rx="2" fill="#6FA8DC" opacity="0.39"/><rect x="316" y="991" width="16" height="22" rx="2" fill="#6FA8DC" opacity="0.21"/><rect x="316" y="1033" width="16" height="22" rx="2" fill="#6FA8DC" opacity="0.4"/><rect x="346" y="403" width="16" height="22" rx="2" fill="#6FA8DC" opacity="0.35"/><rect x="346" y="487" width="16" height="22" rx="2" fill="#6FA8DC" opacity="0.4"/><rect x="346" y="571" width="16" height="22" rx="2" fill="#6FA8DC" opacity="0.39"/><rect x="346" y="865" width="16" height="22" rx="2" fill="#6FA8DC" opacity="0.44"/><rect x="346" y="991" width="16" height="22" rx="2" fill="#6FA8DC" opacity="0.39"/><rect x="413" y="710" width="246" height="390" fill="#000" opacity="0.30"/><rect x="435" y="778" width="16" height="22" rx="2" fill="#6FA8DC" opacity="0.28"/><rect x="435" y="904" width="16" height="22" rx="2" fill="#6FA8DC" opacity="0.38"/><rect x="465" y="778" width="16" height="22" rx="2" fill="#6FA8DC" opacity="0.29"/><rect x="465" y="820" width="16" height="22" rx="2" fill="#6FA8DC" opacity="0.12"/><rect x="495" y="736" width="16" height="22" rx="2" fill="#6FA8DC" opacity="0.17"/><rect x="495" y="820" width="16" height="22" rx="2" fill="#6FA8DC" opacity="0.33"/><rect x="495" y="862" width="16" height="22" rx="2" fill="#6FA8DC" opacity="0.32"/><rect x="495" y="946" width="16" height="22" rx="2" fill="#6FA8DC" opacity="0.39"/><rect x="525" y="904" width="16" height="22" rx="2" fill="#6FA8DC" opacity="0.42"/><rect x="525" y="946" width="16" height="22" rx="2" fill="#6FA8DC" opacity="0.45"/><rect x="525" y="988" width="16" height="22" rx="2" fill="#6FA8DC" opacity="0.2"/><rect x="555" y="736" width="16" height="22" rx="2" fill="#6FA8DC" opacity="0.36"/><rect x="555" y="820" width="16" height="22" rx="2" fill="#6FA8DC" opacity="0.28"/><rect x="555" y="862" width="16" height="22" rx="2" fill="#6FA8DC" opacity="0.44"/><rect x="555" y="904" width="16" height="22" rx="2" fill="#6FA8DC" opacity="0.13"/><rect x="555" y="988" width="16" height="22" rx="2" fill="#6FA8DC" opacity="0.38"/><rect x="585" y="736" width="16" height="22" rx="2" fill="#6FA8DC" opacity="0.35"/><rect x="585" y="778" width="16" height="22" rx="2" fill="#6FA8DC" opacity="0.48"/><rect x="585" y="862" width="16" height="22" rx="2" fill="#6FA8DC" opacity="0.48"/><rect x="585" y="904" width="16" height="22" rx="2" fill="#6FA8DC" opacity="0.17"/><rect x="585" y="988" width="16" height="22" rx="2" fill="#6FA8DC" opacity="0.19"/><rect x="585" y="1030" width="16" height="22" rx="2" fill="#6FA8DC" opacity="0.34"/><rect x="615" y="820" width="16" height="22" rx="2" fill="#6FA8DC" opacity="0.15"/><rect x="615" y="862" width="16" height="22" rx="2" fill="#6FA8DC" opacity="0.35"/><rect x="615" y="946" width="16" height="22" rx="2" fill="#6FA8DC" opacity="0.2"/><rect x="615" y="988" width="16" height="22" rx="2" fill="#6FA8DC" opacity="0.16"/><rect x="670" y="261" width="189" height="839" fill="#000" opacity="0.30"/><rect x="692" y="329" width="16" height="22" rx="2" fill="#6FA8DC" opacity="0.36"/><rect x="692" y="371" width="16" height="22" rx="2" fill="#6FA8DC" opacity="0.3"/><rect x="692" y="455" width="16" height="22" rx="2" fill="#6FA8DC" opacity="0.18"/><rect x="692" y="497" width="16" height="22" rx="2" fill="#6FA8DC" opacity="0.43"/><rect x="692" y="581" width="16" height="22" rx="2" fill="#6FA8DC" opacity="0.28"/><rect x="692" y="665" width="16" height="22" rx="2" fill="#6FA8DC" opacity="0.43"/><rect x="692" y="707" width="16" height="22" rx="2" fill="#6FA8DC" opacity="0.36"/><rect x="692" y="749" width="16" height="22" rx="2" fill="#6FA8DC" opacity="0.13"/><rect x="692" y="791" width="16" height="22" rx="2" fill="#6FA8DC" opacity="0.14"/><rect x="692" y="917" width="16" height="22" rx="2" fill="#6FA8DC" opacity="0.25"/><rect x="692" y="1001" width="16" height="22" rx="2" fill="#6FA8DC" opacity="0.29"/><rect x="722" y="287" width="16" height="22" rx="2" fill="#6FA8DC" opacity="0.26"/><rect x="722" y="329" width="16" height="22" rx="2" fill="#6FA8DC" opacity="0.49"/><rect x="722" y="371" width="16" height="22" rx="2" fill="#6FA8DC" opacity="0.47"/><rect x="722" y="455" width="16" height="22" rx="2" fill="#6FA8DC" opacity="0.13"/><rect x="722" y="623" width="16" height="22" rx="2" fill="#6FA8DC" opacity="0.17"/><rect x="722" y="665" width="16" height="22" rx="2" fill="#6FA8DC" opacity="0.36"/><rect x="722" y="707" width="16" height="22" rx="2" fill="#6FA8DC" opacity="0.19"/><rect x="722" y="749" width="16" height="22" rx="2" fill="#6FA8DC" opacity="0.38"/><rect x="722" y="917" width="16" height="22" rx="2" fill="#6FA8DC" opacity="0.47"/><rect x="722" y="1001" width="16" height="22" rx="2" fill="#6FA8DC" opacity="0.27"/><rect x="722" y="1043" width="16" height="22" rx="2" fill="#6FA8DC" opacity="0.15"/><rect x="752" y="329" width="16" height="22" rx="2" fill="#6FA8DC" opacity="0.28"/><rect x="752" y="455" width="16" height="22" rx="2" fill="#6FA8DC" opacity="0.33"/><rect x="752" y="497" width="16" height="22" rx="2" fill="#6FA8DC" opacity="0.29"/><rect x="752" y="623" width="16" height="22" rx="2" fill="#6FA8DC" opacity="0.26"/><rect x="752" y="749" width="16" height="22" rx="2" fill="#6FA8DC" opacity="0.32"/><rect x="752" y="791" width="16" height="22" rx="2" fill="#6FA8DC" opacity="0.24"/><rect x="752" y="833" width="16" height="22" rx="2" fill="#6FA8DC" opacity="0.21"/><rect x="752" y="959" width="16" height="22" rx="2" fill="#6FA8DC" opacity="0.45"/><rect x="782" y="287" width="16" height="22" rx="2" fill="#6FA8DC" opacity="0.12"/><rect x="782" y="329" width="16" height="22" rx="2" fill="#6FA8DC" opacity="0.24"/><rect x="782" y="371" width="16" height="22" rx="2" fill="#6FA8DC" opacity="0.3"/><rect x="782" y="413" width="16" height="22" rx="2" fill="#6FA8DC" opacity="0.14"/><rect x="782" y="917" width="16" height="22" rx="2" fill="#6FA8DC" opacity="0.16"/><rect x="812" y="371" width="16" height="22" rx="2" fill="#6FA8DC" opacity="0.15"/><rect x="812" y="455" width="16" height="22" rx="2" fill="#6FA8DC" opacity="0.42"/><rect x="812" y="707" width="16" height="22" rx="2" fill="#6FA8DC" opacity="0.25"/><rect x="812" y="875" width="16" height="22" rx="2" fill="#6FA8DC" opacity="0.28"/><rect x="812" y="917" width="16" height="22" rx="2" fill="#6FA8DC" opacity="0.41"/><rect x="812" y="1001" width="16" height="22" rx="2" fill="#6FA8DC" opacity="0.5"/><rect x="877" y="554" width="223" height="546" fill="#000" opacity="0.30"/><rect x="899" y="664" width="16" height="22" rx="2" fill="#6FA8DC" opacity="0.48"/><rect x="899" y="790" width="16" height="22" rx="2" fill="#6FA8DC" opacity="0.43"/><rect x="899" y="832" width="16" height="22" rx="2" fill="#6FA8DC" opacity="0.14"/><rect x="899" y="874" width="16" height="22" rx="2" fill="#6FA8DC" opacity="0.32"/><rect x="929" y="622" width="16" height="22" rx="2" fill="#6FA8DC" opacity="0.42"/><rect x="929" y="664" width="16" height="22" rx="2" fill="#6FA8DC" opacity="0.46"/><rect x="929" y="790" width="16" height="22" rx="2" fill="#6FA8DC" opacity="0.21"/><rect x="929" y="916" width="16" height="22" rx="2" fill="#6FA8DC" opacity="0.4"/><rect x="929" y="958" width="16" height="22" rx="2" fill="#6FA8DC" opacity="0.44"/><rect x="959" y="580" width="16" height="22" rx="2" fill="#6FA8DC" opacity="0.17"/><rect x="959" y="790" width="16" height="22" rx="2" fill="#6FA8DC" opacity="0.22"/><rect x="959" y="832" width="16" height="22" rx="2" fill="#6FA8DC" opacity="0.41"/><rect x="959" y="874" width="16" height="22" rx="2" fill="#6FA8DC" opacity="0.37"/><rect x="959" y="958" width="16" height="22" rx="2" fill="#6FA8DC" opacity="0.33"/><rect x="989" y="622" width="16" height="22" rx="2" fill="#6FA8DC" opacity="0.39"/><rect x="989" y="706" width="16" height="22" rx="2" fill="#6FA8DC" opacity="0.25"/><rect x="989" y="748" width="16" height="22" rx="2" fill="#6FA8DC" opacity="0.26"/><rect x="989" y="790" width="16" height="22" rx="2" fill="#6FA8DC" opacity="0.36"/><rect x="989" y="958" width="16" height="22" rx="2" fill="#6FA8DC" opacity="0.27"/><rect x="989" y="1000" width="16" height="22" rx="2" fill="#6FA8DC" opacity="0.32"/><rect x="1019" y="622" width="16" height="22" rx="2" fill="#6FA8DC" opacity="0.23"/><rect x="1019" y="832" width="16" height="22" rx="2" fill="#6FA8DC" opacity="0.26"/><rect x="1019" y="874" width="16" height="22" rx="2" fill="#6FA8DC" opacity="0.46"/><rect x="1019" y="958" width="16" height="22" rx="2" fill="#6FA8DC" opacity="0.34"/><rect x="1019" y="1042" width="16" height="22" rx="2" fill="#6FA8DC" opacity="0.22"/><rect x="1049" y="580" width="16" height="22" rx="2" fill="#6FA8DC" opacity="0.45"/><rect x="1049" y="622" width="16" height="22" rx="2" fill="#6FA8DC" opacity="0.46"/><rect x="1049" y="790" width="16" height="22" rx="2" fill="#6FA8DC" opacity="0.33"/><rect x="1049" y="832" width="16" height="22" rx="2" fill="#6FA8DC" opacity="0.38"/><rect x="1049" y="1000" width="16" height="22" rx="2" fill="#6FA8DC" opacity="0.41"/><rect x="1049" y="1042" width="16" height="22" rx="2" fill="#6FA8DC" opacity="0.47"/><rect x="1113" y="660" width="198" height="440" fill="#000" opacity="0.30"/><rect x="1135" y="686" width="16" height="22" rx="2" fill="#6FA8DC" opacity="0.19"/><rect x="1135" y="770" width="16" height="22" rx="2" fill="#6FA8DC" opacity="0.32"/><rect x="1135" y="854" width="16" height="22" rx="2" fill="#6FA8DC" opacity="0.34"/><rect x="1135" y="1022" width="16" height="22" rx="2" fill="#6FA8DC" opacity="0.21"/><rect x="1165" y="854" width="16" height="22" rx="2" fill="#6FA8DC" opacity="0.46"/><rect x="1165" y="896" width="16" height="22" rx="2" fill="#6FA8DC" opacity="0.49"/><rect x="1165" y="938" width="16" height="22" rx="2" fill="#6FA8DC" opacity="0.29"/><rect x="1195" y="728" width="16" height="22" rx="2" fill="#6FA8DC" opacity="0.24"/><rect x="1195" y="770" width="16" height="22" rx="2" fill="#6FA8DC" opacity="0.41"/><rect x="1225" y="686" width="16" height="22" rx="2" fill="#6FA8DC" opacity="0.44"/><rect x="1225" y="812" width="16" height="22" rx="2" fill="#6FA8DC" opacity="0.23"/><rect x="1225" y="896" width="16" height="22" rx="2" fill="#6FA8DC" opacity="0.18"/><rect x="1225" y="1022" width="16" height="22" rx="2" fill="#6FA8DC" opacity="0.26"/><rect x="1255" y="686" width="16" height="22" rx="2" fill="#6FA8DC" opacity="0.22"/><rect x="1255" y="812" width="16" height="22" rx="2" fill="#6FA8DC" opacity="0.34"/><rect x="1255" y="938" width="16" height="22" rx="2" fill="#6FA8DC" opacity="0.15"/><rect x="1332" y="599" width="149" height="501" fill="#000" opacity="0.30"/><rect x="1354" y="793" width="16" height="22" rx="2" fill="#6FA8DC" opacity="0.36"/><rect x="1384" y="709" width="16" height="22" rx="2" fill="#6FA8DC" opacity="0.18"/><rect x="1384" y="793" width="16" height="22" rx="2" fill="#6FA8DC" opacity="0.21"/><rect x="1384" y="835" width="16" height="22" rx="2" fill="#6FA8DC" opacity="0.13"/><rect x="1384" y="919" width="16" height="22" rx="2" fill="#6FA8DC" opacity="0.47"/><rect x="1414" y="625" width="16" height="22" rx="2" fill="#6FA8DC" opacity="0.25"/><rect x="1414" y="667" width="16" height="22" rx="2" fill="#6FA8DC" opacity="0.45"/><rect x="1414" y="709" width="16" height="22" rx="2" fill="#6FA8DC" opacity="0.42"/><rect x="1414" y="835" width="16" height="22" rx="2" fill="#6FA8DC" opacity="0.4"/><rect x="1414" y="919" width="16" height="22" rx="2" fill="#6FA8DC" opacity="0.26"/><rect x="1414" y="1045" width="16" height="22" rx="2" fill="#6FA8DC" opacity="0.28"/><rect x="1444" y="667" width="16" height="22" rx="2" fill="#6FA8DC" opacity="0.15"/><rect x="1444" y="877" width="16" height="22" rx="2" fill="#6FA8DC" opacity="0.5"/><rect x="1444" y="919" width="16" height="22" rx="2" fill="#6FA8DC" opacity="0.12"/><rect x="1493" y="544" width="171" height="556" fill="#000" opacity="0.30"/><rect x="1515" y="654" width="16" height="22" rx="2" fill="#6FA8DC" opacity="0.33"/><rect x="1515" y="738" width="16" height="22" rx="2" fill="#6FA8DC" opacity="0.39"/><rect x="1515" y="864" width="16" height="22" rx="2" fill="#6FA8DC" opacity="0.49"/><rect x="1515" y="948" width="16" height="22" rx="2" fill="#6FA8DC" opacity="0.28"/><rect x="1515" y="1032" width="16" height="22" rx="2" fill="#6FA8DC" opacity="0.31"/><rect x="1545" y="570" width="16" height="22" rx="2" fill="#6FA8DC" opacity="0.43"/><rect x="1545" y="612" width="16" height="22" rx="2" fill="#6FA8DC" opacity="0.49"/><rect x="1545" y="654" width="16" height="22" rx="2" fill="#6FA8DC" opacity="0.41"/><rect x="1545" y="822" width="16" height="22" rx="2" fill="#6FA8DC" opacity="0.25"/><rect x="1545" y="906" width="16" height="22" rx="2" fill="#6FA8DC" opacity="0.38"/><rect x="1545" y="1032" width="16" height="22" rx="2" fill="#6FA8DC" opacity="0.2"/><rect x="1575" y="738" width="16" height="22" rx="2" fill="#6FA8DC" opacity="0.28"/><rect x="1575" y="780" width="16" height="22" rx="2" fill="#6FA8DC" opacity="0.25"/><rect x="1575" y="864" width="16" height="22" rx="2" fill="#6FA8DC" opacity="0.28"/><rect x="1575" y="948" width="16" height="22" rx="2" fill="#6FA8DC" opacity="0.26"/><rect x="1575" y="990" width="16" height="22" rx="2" fill="#6FA8DC" opacity="0.26"/><rect x="1605" y="612" width="16" height="22" rx="2" fill="#6FA8DC" opacity="0.45"/><rect x="1605" y="738" width="16" height="22" rx="2" fill="#6FA8DC" opacity="0.34"/>
<rect width="1600" height="1100" fill="#0A1622" opacity="0.12"/>
<g opacity="0.5" font-family="monospace" font-size="26" fill="#FFFFFF">
<text x="46" y="1054">vervang door: assets/foto/ai-onderhoud.jpg</text>
</g>
</svg>
